<?xml version="1.0" encoding="utf-8"?>
<!-- Generator: Adobe Illustrator 27.2.0, SVG Export Plug-In . SVG Version: 6.00 Build 0)  -->
<svg version="1.1" id="Layer_1" xmlns="http://www.w3.org/2000/svg" xmlns:xlink="http://www.w3.org/1999/xlink" x="0px" y="0px"
	 viewBox="0 0 275 69.3" style="enable-background:new 0 0 275 69.3;" xml:space="preserve">
<style type="text/css">
	.st0{fill:#606161;}
	.st1{fill:#F15B2A;}
</style>
<g>
	<path class="st0" d="M15,3.6c4.7,4.6-2.3,11.7-7,7.2C3.4,6.2,10.4-0.9,15,3.6z"/>
	<path class="st0" d="M75,50c2.2,0,4.6,0,6.5-0.4v-10c-3.7-1-10.7-1.5-13.4,2c-1.5,2-0.8,6,1.3,7.1C70.8,49.5,72.7,50,75,50z
		 M74.3,17.3c10-0.3,15.5,4.9,15.2,14.8v23c-7.7,1.2-19.2,3.6-26.3-1.1c-4.5-3-5.5-10.4-3-14.9c4-7,14.2-7,21.2-5.4
		c0.1-3.1-0.3-6.6-3.2-8.2c-3.7-2-10.8-0.9-14.5,0.4l-1-6.8C65.9,17.9,70.6,17.4,74.3,17.3z"/>
	<path class="st0" d="M92.8,18.3h8.6l10.7,28.5l8.4-28.7l8.2,0.1c-3.7,12.7-7.5,24.3-11.9,35.4c-1.4,3.4-3.2,6.3-5.3,9
		c-2.4,3-5,5.6-9,6.3c-3.1,0.6-6.9,0.2-9.8-1l3.3-6.7c2.8,0.6,5.8,1,7.6-0.1c1.7-1,3.3-2.9,4.5-5.5C108.2,55.7,99,33,92.8,18.3z"/>
	<g>
		<path class="st1" d="M267.5,17.6c-4.9-4.9-11-7.4-18.2-7.5c-0.4,0-0.7,0.3-0.7,0.7v8.1c0,0.4,0.3,0.7,0.7,0.7
			c4.3,0.1,7.9,1.7,10.8,4.6c3,3.1,4.5,7,4.5,11.9s-1.5,8.8-4.5,11.9c-2.9,2.9-6.4,4.4-10.8,4.6c-0.4,0-0.7,0.3-0.7,0.7v8.1
			c0,0.4,0.3,0.7,0.7,0.7c7.3-0.1,13.3-2.6,18.2-7.5c5-5,7.6-11.1,7.6-18.4S272.5,22.6,267.5,17.6z"/>
		<path class="st1" d="M243.5,36.8l-16.1,24.1c-0.1,0.2-0.3,0.3-0.5,0.3h-11c-0.5,0-0.9-0.6-0.5-1l15.7-23.3c0.1-0.2,0.1-0.5,0-0.7
			l-16.7-24.4c-0.3-0.5,0-1,0.5-1h11c0.2,0,0.4,0.1,0.5,0.3L243.5,36C243.7,36.3,243.7,36.5,243.5,36.8z"/>
	</g>
	<path class="st0" d="M35.4,37.7l12,17.9c0.1,0.1,0.3,0.2,0.4,0.2H57L44.5,37.4l13.1-19.2h-9.1c-0.2,0-0.3,0.1-0.4,0.2L35.4,37.1
		C35.3,37.3,35.3,37.5,35.4,37.7z"/>
	<polygon class="st0" points="32,0 23.7,1.4 23.7,55.9 32,55.9 	"/>
	<polygon class="st0" points="0,18.3 2.9,24.8 7.4,24.8 7.4,55.9 15.8,55.9 15.8,18.3 	"/>
	<path class="st0" d="M184.5,17.2c-11,0-19.9,8.9-19.9,19.9S173.5,57,184.5,57s19.9-8.9,19.9-19.9S195.5,17.2,184.5,17.2z
		 M184.1,49.6c-6.9,0-12.5-5.6-12.5-12.5s5.6-12.5,12.5-12.5s12.5,5.6,12.5,12.5C196.7,44,191.1,49.6,184.1,49.6z"/>
	<path class="st0" d="M163.3,55.9l-2.2-6.9h-13l0,0h-6.4c5.3-8.4,12.8-17.5,19.2-24.8v-5.9h-27.5l-2.2,6.9h19
		c-6.3,7.6-13.6,16.8-18.5,25.5v5.2h28.7l0,0H163.3z"/>
</g>
</svg>
