<?xml version="1.0" encoding="utf-8"?>
<!-- Generator: Adobe Illustrator 27.2.0, SVG Export Plug-In . SVG Version: 6.00 Build 0)  -->
<svg version="1.1" id="Layer_1" xmlns="http://www.w3.org/2000/svg" xmlns:xlink="http://www.w3.org/1999/xlink" x="0px" y="0px"
	 viewBox="0 0 658.5 162.6" style="enable-background:new 0 0 658.5 162.6;" xml:space="preserve">
<style type="text/css">
	.st0{fill:url(#SVGID_1_);}
	.st1{fill:url(#SVGID_00000163067868890399893050000016819720039417930882_);}
	.st2{fill:url(#SVGID_00000163793003785045356880000006081090065686331292_);}
	.st3{fill:url(#SVGID_00000129187274459763629190000010961634147494132919_);}
	.st4{fill:url(#SVGID_00000077290150341557679280000001912065248455970694_);}
	.st5{fill:#24B67C;}
</style>
<g>
	
		<linearGradient id="SVGID_1_" gradientUnits="userSpaceOnUse" x1="291.4" y1="142.3" x2="291.4" y2="1.8" gradientTransform="matrix(1 0 0 -1 0 164)">
		<stop  offset="0" style="stop-color:#808184"/>
		<stop  offset="1" style="stop-color:#414142"/>
	</linearGradient>
	<path class="st0" d="M287.5,146.1c19.7,0,29.5-6.7,29.5-20.2c0-4.1-0.9-7.7-2.6-10.6s-4.1-5.4-7.1-7.6c-3-2.1-6.4-4-10.2-5.5
		c-3.8-1.6-7.9-3.1-12.1-4.7c-4.9-1.7-9.6-3.6-14-5.7s-8.2-4.7-11.5-7.6c-3.2-2.9-5.8-6.4-7.7-10.4s-2.8-8.9-2.8-14.6
		c0-11.8,4-21,12-27.6s19.1-9.9,33.2-9.9c8.2,0,15.6,0.9,22.2,2.6C323.1,26,328,28,331.1,30l-6,15.3c-2.7-1.7-6.8-3.3-12.1-5
		c-5.4-1.6-11.6-2.4-18.7-2.4c-3.6,0-7,0.4-10.1,1.2s-5.8,1.9-8.2,3.5c-2.3,1.6-4.2,3.5-5.5,5.9c-1.4,2.4-2,5.2-2,8.4
		c0,3.6,0.7,6.7,2.1,9.1c1.4,2.5,3.4,4.6,6,6.5s5.6,3.6,9,5.1c3.4,1.6,7.2,3.1,11.4,4.7c5.8,2.3,11.2,4.7,16,7
		c4.9,2.3,9.1,5.1,12.6,8.4c3.6,3.2,6.3,7.1,8.3,11.6c1.9,4.5,2.9,9.9,2.9,16.2c0,11.8-4.3,20.9-12.9,27.2s-20.8,9.5-36.4,9.5
		c-5.3,0-10.2-0.4-14.7-1.1c-4.5-0.7-8.4-1.6-11.9-2.5c-3.5-1-6.5-2-9-3.1s-4.5-2-5.9-2.8l5.6-15.5c3,1.7,7.5,3.6,13.6,5.6
		C271.3,145.1,278.7,146.1,287.5,146.1z"/>
	
		<linearGradient id="SVGID_00000021821564825642673480000013826321389552318370_" gradientUnits="userSpaceOnUse" x1="387.05" y1="108.1" x2="387.05" y2="2.2312" gradientTransform="matrix(1 0 0 -1 0 164)">
		<stop  offset="0" style="stop-color:#808184"/>
		<stop  offset="1" style="stop-color:#414142"/>
	</linearGradient>
	<path style="fill:url(#SVGID_00000021821564825642673480000013826321389552318370_);" d="M398.4,161.9c-8.2,0-15.3-1.3-21.5-3.9
		c-6.2-2.6-11.3-6.2-15.5-10.9s-7.4-10.2-9.4-16.6c-2.1-6.4-3.1-13.5-3.1-21.3s1.1-14.9,3.4-21.4s5.5-12.1,9.6-16.8
		s9.2-8.4,15.2-11.1c6-2.7,12.7-4,20.1-4c4.5,0,9.1,0.4,13.6,1.2s8.9,2,13,3.7l-4.1,15.3c-2.7-1.3-5.9-2.3-9.4-3.1
		c-3.6-0.8-7.4-1.2-11.4-1.2c-10.1,0-17.8,3.2-23.2,9.5c-5.4,6.3-8.1,15.6-8.1,27.8c0,5.4,0.6,10.4,1.8,15c1.2,4.5,3.2,8.4,5.8,11.7
		c2.7,3.2,6.1,5.7,10.2,7.5c4.1,1.7,9.2,2.6,15.2,2.6c4.8,0,9.1-0.5,13-1.4s6.9-1.9,9.1-2.9l2.5,15.2c-1,0.6-2.5,1.3-4.5,1.8
		c-1.9,0.6-4.1,1.1-6.6,1.6s-5.1,0.8-7.9,1.2C403.7,161.7,401,161.9,398.4,161.9z"/>
	
		<linearGradient id="SVGID_00000030459135198774321420000017568353395516794288_" gradientUnits="userSpaceOnUse" x1="473.1" y1="108" x2="473.1" y2="2.3" gradientTransform="matrix(1 0 0 -1 0 164)">
		<stop  offset="0" style="stop-color:#808184"/>
		<stop  offset="1" style="stop-color:#414142"/>
	</linearGradient>
	<path style="fill:url(#SVGID_00000030459135198774321420000017568353395516794288_);" d="M473.6,56c7.3,0,13.4,0.9,18.4,2.8
		c5,1.9,9,4.5,12,8c3,3.4,5.2,7.5,6.5,12.2s1.9,9.9,1.9,15.6v63.1c-1.6,0.3-3.7,0.6-6.5,1.1s-5.9,0.9-9.4,1.3
		c-3.5,0.4-7.3,0.7-11.4,1.1c-4.1,0.3-8.1,0.5-12.1,0.5c-5.7,0-10.9-0.6-15.7-1.7c-4.8-1.2-8.9-3-12.4-5.5s-6.2-5.9-8.2-10
		c-1.9-4.1-2.9-9.1-2.9-15c0-5.6,1.1-10.4,3.4-14.4s5.3-7.3,9.2-9.7c3.9-2.5,8.4-4.3,13.6-5.4c5.2-1.2,10.6-1.7,16.3-1.7
		c1.8,0,3.7,0.1,5.6,0.3c1.9,0.2,3.8,0.5,5.5,0.8s3.3,0.6,4.6,0.9c1.3,0.3,2.2,0.5,2.7,0.6v-5.1c0-3-0.3-5.9-1-8.8
		c-0.6-2.9-1.8-5.5-3.5-7.8s-4-4.1-6.9-5.4c-2.9-1.4-6.7-2-11.4-2c-6,0-11.2,0.4-15.6,1.3c-4.5,0.8-7.8,1.7-10,2.6l-2.1-15
		c2.3-1,6.2-2,11.7-3C461.4,56.5,467.3,56,473.6,56z M475.2,146.5c4.3,0,8.1-0.1,11.4-0.3s6.1-0.5,8.3-1.1V115
		c-1.3-0.6-3.4-1.2-6.3-1.7s-6.4-0.7-10.6-0.7c-2.7,0-5.6,0.2-8.6,0.6s-5.8,1.2-8.4,2.4c-2.5,1.2-4.6,2.9-6.3,5.1
		c-1.7,2.1-2.5,5-2.5,8.4c0,6.5,2.1,11,6.2,13.5C462.4,145.3,468,146.5,475.2,146.5z"/>
	
		<linearGradient id="SVGID_00000090973932273083933260000007378680256024646803_" gradientUnits="userSpaceOnUse" x1="546.95" y1="164" x2="546.95" y2="2.5" gradientTransform="matrix(1 0 0 -1 0 164)">
		<stop  offset="0" style="stop-color:#808184"/>
		<stop  offset="1" style="stop-color:#414142"/>
	</linearGradient>
	<path style="fill:url(#SVGID_00000090973932273083933260000007378680256024646803_);" d="M561,161.5c-11.1-0.3-19-2.7-23.7-7.2
		s-7-11.6-7-21.2V11.9L548.4,0v130.2c0,3,0.3,5.4,0.8,7.4c0.5,1.9,1.4,3.5,2.5,4.7c1.2,1.2,2.7,2,4.7,2.6c1.9,0.6,4.3,1.1,7.2,1.5
		L561,161.5z"/>
	
		<linearGradient id="SVGID_00000086676229527904975900000011803430437870135467_" gradientUnits="userSpaceOnUse" x1="614.45" y1="108" x2="614.45" y2="2.1" gradientTransform="matrix(1 0 0 -1 0 164)">
		<stop  offset="0" style="stop-color:#808184"/>
		<stop  offset="1" style="stop-color:#414142"/>
	</linearGradient>
	<path style="fill:url(#SVGID_00000086676229527904975900000011803430437870135467_);" d="M570.3,109.2c0-8.9,1.3-16.7,3.9-23.4
		c2.6-6.7,6-12.2,10.3-16.6s9.2-7.7,14.8-9.9s11.3-3.3,17.1-3.3c13.6,0,24,4.2,31.3,12.7s10.9,21.4,10.9,38.8c0,0.8,0,1.8,0,3
		s-0.1,2.4-0.2,3.4h-69.2c0.8,10.5,3.8,18.5,9.1,23.9c5.3,5.4,13.6,8.2,24.9,8.2c6.3,0,11.7-0.5,16-1.7c4.3-1.1,7.6-2.2,9.8-3.2
		l2.5,15.2c-2.2,1.2-6.1,2.4-11.6,3.7s-11.8,1.9-18.7,1.9c-8.8,0-16.4-1.3-22.8-4c-6.4-2.7-11.7-6.3-15.8-11s-7.2-10.2-9.2-16.6
		C571.3,123.9,570.3,116.9,570.3,109.2z M639.7,99.3c0.1-8.2-1.9-14.9-6.1-20.1c-4.2-5.2-10-7.9-17.4-7.9c-4.1,0-7.8,0.8-11,2.4
		s-5.9,3.7-8.1,6.3c-2.2,2.6-3.9,5.6-5.1,8.9c-1.2,3.4-2,6.8-2.4,10.3L639.7,99.3L639.7,99.3z"/>
	<path class="st5" d="M136,62.8l-21.1-21.1h-1.6H80.4H0L120.3,162l0,0l0.4,0.4v0.2h0.2h28.7h49.3V0L136,62.8z M58.9,66.1h33.4h7.6h5
		l14,14l-23,23L58.9,66.1z M174.5,137.5h-44.2L113,120.3l61.4-61.4v78.6H174.5z"/>
</g>
</svg>
