<?xml version="1.0" encoding="utf-8"?>
<!-- Generator: Adobe Illustrator 27.2.0, SVG Export Plug-In . SVG Version: 6.00 Build 0)  -->
<svg version="1.1" id="Layer_1" xmlns="http://www.w3.org/2000/svg" xmlns:xlink="http://www.w3.org/1999/xlink" x="0px" y="0px"
	 viewBox="0 0 517.5 170.3" style="enable-background:new 0 0 517.5 170.3;" xml:space="preserve">
<style type="text/css">
	.st0{fill:#0A719A;}
	.st1{fill:#5CA849;}
	.st2{fill:#D45129;}
</style>
<g>
	<path class="st0" d="M42.5,167.4c-1.8,0-3-0.8-3.7-2.5L0.1,49.5c-0.5-2.1,0.4-3.2,2.7-3.2H33c1.8,0,2.9,0.8,3.4,2.4l15.4,55.9
		c1.5,5.4,2.9,10.8,4.3,16.2c1.4,5.4,2.6,10.9,3.6,16.7h0.7c1.1-5.7,2.4-11.3,3.8-16.7c1.4-5.4,2.8-10.9,4.3-16.4l15.7-55.6
		c0.5-1.6,1.7-2.4,3.7-2.4h29.9c2.3,0,3.1,1.1,2.4,3.2l-39,115.4c-0.5,1.6-1.7,2.5-3.7,2.5H42.5z"/>
	<path class="st0" d="M179.3,170.3c-17.6,0-31.4-4.2-41.3-12.7c-9.9-8.5-14.8-21.2-14.8-38.2v-25c0-17.2,4.9-29.9,14.7-38.4
		c9.8-8.4,23.6-12.6,41.4-12.6c18,0,31.9,4.2,41.7,12.6c9.8,8.4,14.7,21.2,14.7,38.4v25c0,17-4.9,29.7-14.7,38.2
		C211.1,166.1,197.3,170.3,179.3,170.3z M179.3,141.4c7.8,0,13.5-2,17-6c3.5-4,5.3-10.4,5.3-19.2V97.3c0-8.8-1.8-15.2-5.3-19.1
		c-3.5-3.9-9.2-5.9-17-5.9c-7.7,0-13.3,2-16.8,5.9c-3.5,3.9-5.3,10.3-5.3,19.1v18.9c0,8.8,1.8,15.2,5.3,19.2
		C166,139.4,171.6,141.4,179.3,141.4z"/>
	<path class="st0" d="M256.9,167.4c-2.1,0-3.2-1.1-3.2-3.2V3.2c0-2.1,1.1-3.2,3.2-3.2h27.7c2.1,0,3.2,1.1,3.2,3.2v161
		c0,2.1-1.1,3.2-3.2,3.2H256.9z"/>
	<path class="st0" d="M308.9,167.4c-2.1,0-3.2-1.1-3.2-3.2V3.2c0-2.1,1.1-3.2,3.2-3.2h27.7c2.1,0,3.2,1.1,3.2,3.2v161
		c0,2.1-1.1,3.2-3.2,3.2H308.9z"/>
	<path class="st0" d="M360.9,128c-2.1,0-3.2-0.8-3.2-2.3V41.6c0-1.4,1.1-2.2,3.2-2.2h27.7c2.1,0,3.2,0.7,3.2,2.2v84.1
		c0,1.6-1.1,2.3-3.2,2.3H360.9z"/>
	<path class="st0" d="M464.3,170.3c-6.9,0-13.2-0.4-18.9-1.1c-5.7-0.7-11.4-1.6-17.2-2.5c-5.7-0.9-11.9-1.6-18.6-2.1V3.2
		c0-2.1,1.1-3.2,3.2-3.2h27.7c2.1,0,3.2,1.1,3.2,3.2v137.2c2.9,0.5,5.9,0.9,8.9,1.3c3,0.4,6,0.6,8.9,0.6c7.4,0,12.8-2.1,16.4-6.2
		c3.6-4.2,5.4-10.3,5.4-18.5V92.4c0-7-1.2-12.1-3.7-15.2c-2.5-3.1-6.2-4.7-11.3-4.7c-4.1,0-8.4,1.2-13,3.6
		c-4.6,2.4-9.9,6.2-15.9,11.4l1-25.5c6.7-6.4,13.5-11.1,20.3-14.1c6.9-3,13.9-4.5,21.1-4.5c11.9,0,20.8,3.4,26.7,10.3
		c5.9,6.9,8.8,17.5,8.8,31.9v35c0,16.8-4.3,29.3-13,37.5C495.8,166.2,482.4,170.3,464.3,170.3z"/>
	<path class="st1" d="M391.7,26.9L378.3,3.7h0L377,1.3c-1-1.7-3.5-1.7-4.5,0l-1.4,2.4h0l-13.4,23.2h2.5c0.1,0,0.2,0,0.2,0H389
		c0.1,0,0.2,0,0.2,0H391.7z"/>
	<path class="st2" d="M357.7,140.5l13.4,23.2h0l1.4,2.4c1,1.7,3.5,1.7,4.5,0l1.4-2.4h0l13.4-23.2h-2.5c-0.1,0-0.2,0-0.2,0h-28.6
		c-0.1,0-0.2,0-0.2,0H357.7z"/>
</g>
</svg>
